<?xml version="1.0" encoding="utf-8"?>
<!-- Generator: Adobe Illustrator 16.0.0, SVG Export Plug-In . SVG Version: 6.00 Build 0)  -->
<!DOCTYPE svg PUBLIC "-//W3C//DTD SVG 1.1//EN" "http://www.w3.org/Graphics/SVG/1.1/DTD/svg11.dtd">
<svg version="1.1" id="Capa_1" xmlns="http://www.w3.org/2000/svg" xmlns:xlink="http://www.w3.org/1999/xlink" x="0px" y="0px"
	 width="735px" height="324px" viewBox="27.5 140.5 735 324" enable-background="new 27.5 140.5 735 324" xml:space="preserve">
<g>
	<rect x="27.055" y="141.197" fill="#FFFFFF" width="737.891" height="329.604"/>
	<path fill="#17479E" d="M626.029,229.162c-9.871-5.753-20.4-8.421-33.185-8.421c-20.272,0-40.293,6.401-56.35,18.015
		c-16.437,11.892-27.211,28.214-30.351,45.948c-2.774,15.753,1.082,30.818,10.845,42.454c11.756,14.016,31.119,22.055,53.09,22.055
		c12.123,0,24.936-2.968,37.051-8.575l2.07-0.966l0.42-2.245l4.41-23.552l1.975-10.499l-8.812,6.024
		c-13.146,8.98-23.699,12.986-34.216,12.986c-13.364,0-24.42-4.44-31.182-12.479c-5.598-6.661-7.807-15.239-6.244-24.156
		c3.748-21.168,27.332-38.402,52.57-38.402c10.391,0,20.057,3.931,28.727,11.685l5.933,5.312l1.367-7.829l4.02-22.744l0.539-3.036
		L626.029,229.162z M408.424,345.922l21.635-122.65h22.302c9.942,0,17.731,0.627,23.414,1.901
		c5.737,1.267,10.391,3.422,13.952,6.439c3.613,3.125,6.226,7.021,7.845,11.677c1.67,4.716,2.073,9.481,1.215,14.3
		c-1.539,8.789-6.928,16.225-16.127,22.312c7.479,2.227,13.004,6.125,16.582,11.686c3.641,5.514,4.817,11.912,3.533,19.229
		c-1.699,9.576-7.228,17.674-16.597,24.303c-5.649,4.075-11.696,6.912-18.129,8.495c-6.998,1.533-15.562,2.308-25.676,2.308H408.424
		L408.424,345.922z M450.635,272.028h3.898c4.606,0,8.192-0.976,10.721-2.932c2.545-1.97,4.189-4.866,4.965-8.693
		c0.754-3.717,0.205-6.554-1.592-8.479c-1.816-1.933-4.818-2.895-9.004-2.895h-4.367L450.635,272.028z M442.062,320.62h9.131
		c6.69,0,11.789-1.075,15.309-3.249c3.717-2.336,5.891-5.293,6.527-8.895c0.631-3.489-0.422-6.414-3.166-8.787
		c-2.676-2.34-7.986-3.502-15.938-3.502h-7.481L442.062,320.62z M683.082,296.577c32.924-11.704,31.941-40.311,31.941-40.311
		c0-34.561-43.123-33.06-43.123-33.06h-33.974l-21.604,122.659h29.239l7.552-42.871l26.93,42.871h35.656L683.082,296.577z
		 M662.941,275.453h-4.394L663.67,249h4.939c12.789,0,18.364,4.259,16.707,12.797C683.549,270.902,676.098,275.453,662.941,275.453z
		"/>
	<g>
		<g>
			<g>
				<g>
					<path fill="#ED1C24" d="M257.268,369.489l-3.02,1.614c-0.349-0.888-0.739-1.469-1.146-1.723
						c-0.424-0.316-1.022-0.462-1.78-0.462c-0.931,0-1.747,0.265-2.469,0.781c-0.71,0.532-1.127,1.186-1.269,1.975
						c-0.193,1.09,0.462,1.957,1.959,2.62l2.06,0.913c1.685,0.731,2.848,1.628,3.486,2.682c0.654,1.05,0.841,2.339,0.578,3.862
						c-0.374,2.054-1.354,3.754-2.957,5.09c-1.614,1.348-3.445,2.019-5.475,2.019c-1.939,0-3.427-0.572-4.485-1.729
						c-1.043-1.142-1.522-2.753-1.468-4.839l3.54-0.737c-0.073,1.301,0.029,2.209,0.327,2.7c0.519,0.968,1.443,1.451,2.768,1.451
						c1.057,0,1.979-0.356,2.805-1.052c0.816-0.702,1.314-1.59,1.511-2.674c0.069-0.424,0.084-0.819,0.034-1.193
						c-0.06-0.347-0.193-0.687-0.401-0.994c-0.191-0.295-0.47-0.575-0.832-0.835c-0.351-0.273-0.785-0.529-1.3-0.768l-1.991-0.888
						c-2.824-1.296-4.011-3.171-3.575-5.665c0.301-1.651,1.188-3.062,2.665-4.193c1.479-1.117,3.185-1.692,5.085-1.692
						C254.481,365.753,256.263,366.997,257.268,369.489z"/>
					<path fill="#ED1C24" d="M258.082,377.22c0.556-3.125,2.181-5.826,4.877-8.067c2.686-2.259,5.643-3.387,8.855-3.387
						c3.169,0,5.696,1.139,7.562,3.405c1.87,2.272,2.524,5.009,1.961,8.192c-0.564,3.188-2.199,5.903-4.881,8.144
						c-2.692,2.235-5.678,3.354-8.92,3.354c-2.866,0-5.285-1.001-7.221-2.979C258.187,383.67,257.442,380.788,258.082,377.22z
						 M261.461,377.263c-0.433,2.463,0.033,4.487,1.41,6.062c1.357,1.583,3.117,2.382,5.265,2.382c2.339,0,4.46-0.809,6.347-2.423
						c1.898-1.64,3.052-3.624,3.471-5.974c0.425-2.371-0.013-4.354-1.322-5.97c-1.285-1.61-3.102-2.411-5.419-2.411
						c-2.319,0-4.424,0.801-6.301,2.411C263.031,372.94,261.88,374.917,261.461,377.263z"/>
					<path fill="#ED1C24" d="M281.478,388.457l8.935-23.945l4.583,17.316l10.991-17.316l-0.045,23.945H302.5l0.23-13.439
						l-9.152,14.461l-3.837-14.478l-4.784,13.456H281.478z"/>
					<path fill="#ED1C24" d="M310.224,377.22c0.556-3.125,2.181-5.826,4.879-8.067c2.684-2.259,5.636-3.387,8.854-3.387
						c3.178,0,5.688,1.139,7.557,3.405c1.876,2.272,2.528,5.009,1.968,8.192c-0.573,3.188-2.198,5.903-4.891,8.144
						c-2.692,2.235-5.663,3.354-8.913,3.354c-2.874,0-5.283-1.001-7.211-2.979C310.333,383.67,309.586,380.788,310.224,377.22z
						 M313.597,377.263c-0.435,2.463,0.046,4.487,1.397,6.062c1.373,1.583,3.132,2.382,5.28,2.382c2.339,0,4.448-0.809,6.349-2.423
						c1.893-1.64,3.051-3.624,3.469-5.974c0.423-2.371-0.03-4.354-1.321-5.97c-1.292-1.61-3.1-2.411-5.422-2.411
						c-2.318,0-4.422,0.801-6.3,2.411C315.178,372.94,314.013,374.917,313.597,377.263z"/>
					<path fill="#ED1C24" d="M350.368,369.489l-3.02,1.614c-0.354-0.888-0.735-1.469-1.149-1.723
						c-0.426-0.316-1.02-0.462-1.779-0.462c-0.931,0-1.748,0.265-2.468,0.781c-0.703,0.532-1.123,1.186-1.275,1.975
						c-0.185,1.09,0.458,1.957,1.969,2.62l2.058,0.913c1.679,0.731,2.835,1.628,3.489,2.682c0.654,1.05,0.838,2.339,0.574,3.862
						c-0.367,2.054-1.349,3.754-2.956,5.09c-1.619,1.348-3.447,2.019-5.476,2.019c-1.944,0-3.427-0.572-4.495-1.729
						c-1.035-1.142-1.52-2.753-1.46-4.839l3.539-0.737c-0.074,1.301,0.028,2.209,0.332,2.7c0.516,0.968,1.433,1.451,2.771,1.451
						c1.041,0,1.974-0.356,2.791-1.052c0.824-0.702,1.327-1.59,1.516-2.674c0.068-0.424,0.095-0.819,0.037-1.193
						c-0.06-0.347-0.186-0.687-0.391-0.994c-0.207-0.295-0.479-0.575-0.837-0.835c-0.359-0.273-0.791-0.529-1.307-0.768
						l-1.987-0.888c-2.82-1.296-4.011-3.171-3.57-5.665c0.291-1.651,1.177-3.062,2.658-4.193c1.48-1.117,3.181-1.692,5.074-1.692
						C347.58,365.753,349.367,366.997,350.368,369.489z"/>
					<path fill="#ED1C24" d="M373.768,369.34h-8.928l-0.966,5.358h8.682l-0.559,3.165h-8.685l-1.305,7.438h8.928l-0.567,3.155
						h-12.297l3.962-22.279h12.284L373.768,369.34z"/>
					<path fill="#ED1C24" d="M380.774,366.178l-3.396,19.124h6.538l-0.56,3.155h-9.906l3.955-22.279H380.774z"/>
				</g>
			</g>
		</g>
	</g>
	<g>
		<path fill="#17479E" d="M401.932,388.217l3.888-21.875h3.28c1.47,0,2.612,0.112,3.443,0.344c0.84,0.226,1.52,0.607,2.022,1.145
			c0.507,0.564,0.877,1.255,1.089,2.09c0.217,0.835,0.249,1.693,0.1,2.543c-0.282,1.567-1.111,2.9-2.502,3.987
			c1.086,0.388,1.875,1.083,2.373,2.077c0.503,0.979,0.643,2.132,0.408,3.432c-0.306,1.722-1.162,3.158-2.579,4.335
			c-0.857,0.722-1.77,1.225-2.729,1.511c-1.041,0.286-2.295,0.413-3.789,0.413L401.932,388.217L401.932,388.217z M407.449,375.729
			h1.028c1.236,0,2.183-0.263,2.851-0.814c0.678-0.537,1.096-1.326,1.281-2.385c0.193-1.036,0.024-1.811-0.458-2.345
			c-0.491-0.535-1.298-0.803-2.408-0.803h-1.157L407.449,375.729z M405.785,385.116h2.038c1.497,0,2.638-0.292,3.445-0.884
			c0.847-0.638,1.353-1.431,1.534-2.401c0.163-0.942-0.058-1.734-0.646-2.375c-0.577-0.644-1.766-0.946-3.522-0.946h-1.676
			L405.785,385.116z"/>
		<path fill="#17479E" d="M431.254,382.904h-9.367l-3.383,5.312h-3.559l14.957-23.244l6.313,23.244h-3.606L431.254,382.904z
			 M430.461,379.8l-1.922-7.428l-4.725,7.428H430.461z"/>
		<path fill="#17479E" d="M437.65,388.217l4.143-23.356l12.988,16.683l2.696-15.2h3.308l-4.127,23.213l-13-16.643l-2.713,15.305
			L437.65,388.217L437.65,388.217z"/>
		<path fill="#17479E" d="M480.875,367.518l-0.703,3.903c-1.615-1.604-3.449-2.398-5.488-2.398c-2.246,0-4.278,0.815-6.11,2.425
			c-1.84,1.606-2.951,3.561-3.367,5.888c-0.408,2.308,0.012,4.244,1.297,5.822c1.258,1.576,3.025,2.356,5.275,2.356
			c1.147,0,2.176-0.183,3.059-0.571c0.482-0.188,1.002-0.437,1.535-0.763c0.559-0.316,1.127-0.715,1.758-1.162l-0.715,3.994
			c-2.084,1.078-4.15,1.604-6.242,1.604c-3.123,0-5.59-1.1-7.418-3.271c-1.815-2.189-2.44-4.855-1.889-7.97
			c0.496-2.779,1.854-5.255,4.074-7.449c2.752-2.68,5.934-4.006,9.524-4.006C477.434,365.922,479.244,366.454,480.875,367.518z"/>
		<path fill="#17479E" d="M480.783,377.185c0.561-3.081,2.145-5.723,4.803-7.932c2.633-2.203,5.537-3.317,8.691-3.317
			c3.116,0,5.59,1.121,7.422,3.338c1.848,2.237,2.494,4.912,1.938,8.039c-0.562,3.151-2.16,5.812-4.799,8
			c-2.662,2.205-5.557,3.305-8.768,3.305c-2.814,0-5.181-0.984-7.076-2.933C480.891,383.524,480.156,380.685,480.783,377.185z
			 M484.098,377.227c-0.422,2.415,0.039,4.4,1.396,5.957c1.34,1.55,3.057,2.33,5.176,2.33c2.297,0,4.373-0.793,6.24-2.365
			c1.85-1.619,2.985-3.565,3.396-5.869c0.418-2.339-0.014-4.286-1.299-5.871c-1.262-1.569-3.037-2.362-5.317-2.362
			c-2.273,0-4.341,0.793-6.199,2.362C485.65,372.974,484.518,374.913,484.098,377.227z"/>
		<path fill="#17479E" d="M512.197,388.217l3.883-21.875h4.588c2.203,0,3.898,0.225,5.105,0.649c1.274,0.432,2.403,1.149,3.33,2.166
			c1.885,2.063,2.538,4.769,1.938,8.121c-0.596,3.37-2.242,6.083-4.965,8.159c-1.375,1.051-2.73,1.773-4.096,2.164
			c-1.287,0.415-3.041,0.614-5.253,0.614L512.197,388.217L512.197,388.217z M516.047,385.116h1.482c1.494,0,2.735-0.159,3.785-0.476
			c1.036-0.316,2.014-0.845,2.938-1.571c1.895-1.481,3.045-3.405,3.477-5.791c0.41-2.393-0.045-4.338-1.393-5.832
			c-1.197-1.336-3.211-2.002-6.021-2.002h-1.487L516.047,385.116z"/>
		<path fill="#17479E" d="M547.361,369.444h-8.789l-0.916,5.268h8.504l-0.547,3.105h-8.51l-1.304,7.299h8.779l-0.555,3.101h-12.076
			l3.891-21.875h12.064L547.361,369.444z"/>
		<path fill="#17479E" d="M574.547,367.518l-0.695,3.903c-1.627-1.604-3.457-2.398-5.5-2.398c-2.241,0-4.278,0.815-6.108,2.425
			c-1.834,1.606-2.957,3.561-3.377,5.888c-0.406,2.308,0.039,4.244,1.297,5.822c1.272,1.576,3.021,2.356,5.287,2.356
			c1.141,0,2.168-0.183,3.059-0.571c0.48-0.188,0.994-0.437,1.539-0.763c0.547-0.316,1.127-0.715,1.742-1.162l-0.715,3.994
			c-2.066,1.078-4.138,1.604-6.22,1.604c-3.127,0-5.608-1.1-7.444-3.271c-1.797-2.189-2.424-4.855-1.869-7.97
			c0.488-2.779,1.854-5.255,4.078-7.449c2.746-2.68,5.914-4.006,9.508-4.006C571.096,365.922,572.902,366.454,574.547,367.518z"/>
		<path fill="#17479E" d="M574.455,377.185c0.545-3.081,2.141-5.723,4.799-7.932c2.631-2.203,5.533-3.317,8.687-3.317
			c3.116,0,5.6,1.121,7.446,3.338c1.83,2.237,2.449,4.912,1.91,8.039c-0.559,3.151-2.158,5.812-4.785,8
			c-2.66,2.205-5.58,3.305-8.771,3.305c-2.816,0-5.185-0.984-7.084-2.933C574.566,383.524,573.826,380.685,574.455,377.185z
			 M577.771,377.227c-0.427,2.415,0.038,4.4,1.387,5.957c1.344,1.55,3.059,2.33,5.184,2.33c2.287,0,4.363-0.793,6.232-2.365
			c1.85-1.619,2.986-3.565,3.397-5.869c0.42-2.339-0.012-4.286-1.295-5.871c-1.262-1.569-3.043-2.362-5.346-2.362
			c-2.266,0-4.326,0.793-6.176,2.362C579.316,372.974,578.191,374.913,577.771,377.227z"/>
		<path fill="#17479E" d="M613.887,369.587l-2.957,1.592c-0.348-0.877-0.733-1.447-1.135-1.708c-0.416-0.303-1.002-0.448-1.74-0.448
			c-0.918,0-1.729,0.267-2.418,0.782c-0.701,0.504-1.121,1.157-1.256,1.939c-0.199,1.06,0.445,1.911,1.922,2.563l2.019,0.9
			c1.646,0.711,2.803,1.592,3.426,2.632c0.646,1.03,0.848,2.297,0.564,3.8c-0.353,2.015-1.332,3.671-2.908,4.989
			c-1.584,1.323-3.367,1.986-5.375,1.986c-1.906,0-3.363-0.562-4.394-1.699c-1.033-1.115-1.502-2.71-1.434-4.747l3.465-0.738
			c-0.076,1.284,0.033,2.164,0.316,2.668c0.516,0.938,1.424,1.414,2.729,1.414c1.023,0,1.937-0.345,2.728-1.036
			c0.812-0.681,1.307-1.554,1.5-2.616c0.062-0.419,0.09-0.818,0.026-1.167c-0.053-0.354-0.186-0.687-0.375-0.979
			c-0.19-0.288-0.467-0.574-0.819-0.833c-0.347-0.248-0.781-0.505-1.287-0.751l-1.949-0.865c-2.773-1.272-3.939-3.126-3.508-5.56
			c0.297-1.622,1.164-3.006,2.612-4.117c1.457-1.107,3.109-1.667,4.984-1.667C611.143,365.922,612.904,367.13,613.887,369.587z"/>
		<path fill="#17479E" d="M623.605,369.444l-3.345,18.771h-3.305l3.338-18.771h-5.027l0.55-3.104h13.358l-0.557,3.104H623.605z"/>
		<path fill="#17479E" d="M639.521,382.904h-9.365l-3.373,5.312h-3.564l14.961-23.244l6.312,23.244h-3.613L639.521,382.904z
			 M638.736,379.8l-1.927-7.428l-4.725,7.428H638.736z"/>
		<path fill="#17479E" d="M662.625,378.894l5.121,9.323h-4.039l-4.646-8.956h-0.606l-1.59,8.956h-3.293l3.883-21.875h3.873
			c2.881,0,4.875,0.556,5.973,1.633c1.195,1.207,1.623,2.806,1.271,4.793c-0.267,1.549-0.949,2.873-2.043,3.984
			C665.443,377.869,664.145,378.578,662.625,378.894z M658.961,376.392h1.062c3.118,0,4.893-1.192,5.319-3.588
			c0.39-2.242-0.92-3.358-3.959-3.358h-1.188L658.961,376.392z"/>
		<path fill="#17479E" d="M676.92,366.342l-3.887,21.875h-3.299l3.881-21.875H676.92z"/>
		<path fill="#17479E" d="M696.834,367.518l-0.709,3.903c-1.621-1.604-3.451-2.398-5.484-2.398c-2.246,0-4.293,0.815-6.116,2.425
			c-1.828,1.606-2.957,3.561-3.365,5.888c-0.408,2.308,0.021,4.244,1.283,5.822c1.262,1.576,3.036,2.356,5.272,2.356
			c1.174,0,2.197-0.183,3.076-0.571c0.469-0.188,0.99-0.437,1.541-0.763c0.543-0.316,1.119-0.715,1.738-1.162l-0.722,3.994
			c-2.062,1.078-4.141,1.604-6.223,1.604c-3.123,0-5.596-1.1-7.424-3.271c-1.801-2.189-2.428-4.855-1.892-7.97
			c0.494-2.779,1.863-5.255,4.093-7.449c2.739-2.68,5.903-4.006,9.51-4.006C693.381,365.922,695.186,366.454,696.834,367.518z"/>
		<path fill="#17479E" d="M710.324,382.904h-9.371l-3.373,5.312h-3.557l14.952-23.244l6.308,23.244h-3.604L710.324,382.904z
			 M709.539,379.8l-1.924-7.428l-4.728,7.428H709.539z"/>
	</g>
	<g>
		<polygon fill="#ED1C24" points="411.523,223.334 96.406,223.334 74.785,345.898 389.654,345.898 		"/>
	</g>
</g>
</svg>
